HIERARCHY
ROOT Hips
{
	OFFSET 0.000000 103.266502 0.000000
	CHANNELS 6 Xposition Yposition Zposition Xrotation Yrotation Zrotation 
	JOINT Spine
	{
		OFFSET -0.002400 12.777504 0.315300
		CHANNELS 3 Xrotation Yrotation Zrotation
		JOINT Spine1
		{
			OFFSET -0.002067 5.816869 0.032633
			CHANNELS 3 Xrotation Yrotation Zrotation
			JOINT Spine1_split
			{
				OFFSET -0.002067 5.816869 0.032633
				CHANNELS 3 Xrotation Yrotation Zrotation
				JOINT Spine2
				{
					OFFSET -0.002067 5.816869 0.032633
					CHANNELS 3 Xrotation Yrotation Zrotation
					JOINT Neck
					{
						OFFSET -0.003700 21.199493 -0.826900
						CHANNELS 3 Xrotation Yrotation Zrotation
						JOINT Head
						{
							OFFSET 0.000000 20.442200 4.834800
							CHANNELS 3 Xrotation Yrotation Zrotation
							JOINT HeadTop_End
							{
								OFFSET 0.000000 34.668396 4.968400
								CHANNELS 3 Xrotation Yrotation Zrotation
								End Site
								{
									OFFSET 0.000000 0.000000 0.000000
								}
							}
						}
					}
					JOINT LeftShoulder
					{
						OFFSET 3.288150 8.794197 -1.372250
						CHANNELS 3 Xrotation Yrotation Zrotation
						JOINT LeftShoulder_split
						{
							OFFSET 3.288150 8.794197 -1.372250
							CHANNELS 3 Xrotation Yrotation Zrotation
							JOINT LeftArm
							{
								OFFSET 11.953299 -2.279007 -0.146200
								CHANNELS 3 Xrotation Yrotation Zrotation
								JOINT LeftForeArm
								{
									OFFSET 18.448900 0.000000 0.000000
									CHANNELS 3 Xrotation Yrotation Zrotation
									JOINT LeftHand
									{
										OFFSET 29.527798 0.000000 0.000000
										CHANNELS 3 Xrotation Yrotation Zrotation
										JOINT LeftHandThumb1
										{
											OFFSET 10.739754 -2.369614 9.225399
											CHANNELS 3 Xrotation Yrotation Zrotation
											JOINT LeftHandThumb2
											{
												OFFSET 4.926170 -2.844131 2.844125
												CHANNELS 3 Xrotation Yrotation Zrotation
												JOINT LeftHandThumb3
												{
													OFFSET 4.614891 -2.664413 2.664409
													CHANNELS 3 Xrotation Yrotation Zrotation
													JOINT LeftHandThumb4
													{
														OFFSET 4.432465 -2.559082 2.559083
														CHANNELS 3 Xrotation Yrotation Zrotation
														End Site
														{
															OFFSET 0.000000 0.000000 0.000000
														}
													}
												}
											}
										}
										JOINT LeftHandIndex1
										{
											OFFSET 26.467674 0.187653 6.405298
											CHANNELS 3 Xrotation Yrotation Zrotation
											JOINT LeftHandIndex2
											{
												OFFSET 8.792900 0.000000 0.000000
												CHANNELS 3 Xrotation Yrotation Zrotation
												JOINT LeftHandIndex3
												{
													OFFSET 10.075203 0.000000 0.000000
													CHANNELS 3 Xrotation Yrotation Zrotation
													End Site
													{
														OFFSET 0.000000 0.000000 0.000000
													}
												}
											}
										}
										JOINT LeftHandMiddle1
										{
											OFFSET 25.764404 0.000000 0.000000
											CHANNELS 3 Xrotation Yrotation Zrotation
											JOINT LeftHandMiddle2
											{
												OFFSET 9.393974 0.000000 0.000000
												CHANNELS 3 Xrotation Yrotation Zrotation
												JOINT LeftHandMiddle3
												{
													OFFSET 10.771950 0.000000 0.000000
													CHANNELS 3 Xrotation Yrotation Zrotation
													End Site
													{
														OFFSET 0.000000 0.000000 0.000000
													}
												}
											}
										}
										JOINT LeftHandRing1
										{
											OFFSET 24.660927 0.144547 -6.225808
											CHANNELS 3 Xrotation Yrotation Zrotation
											JOINT LeftHandRing2
											{
												OFFSET 9.393799 0.000000 0.000000
												CHANNELS 3 Xrotation Yrotation Zrotation
												JOINT LeftHandRing3
												{
													OFFSET 9.928497 0.000000 0.000000
													CHANNELS 3 Xrotation Yrotation Zrotation
													End Site
													{
														OFFSET 0.000000 0.000000 0.000000
													}
												}
											}
										}
										JOINT LeftHandPinky1
										{
											OFFSET 23.655350 0.125290 -12.815412
											CHANNELS 3 Xrotation Yrotation Zrotation
											JOINT LeftHandPinky2
											{
												OFFSET 8.425102 0.000000 0.000000
												CHANNELS 3 Xrotation Yrotation Zrotation
												JOINT LeftHandPinky3
												{
													OFFSET 8.147003 0.000000 0.000000
													CHANNELS 3 Xrotation Yrotation Zrotation
													End Site
													{
														OFFSET 0.000000 0.000000 0.000000
													}
												}
											}
										}
									}
								}
							}
						}
					}
					JOINT RightShoulder
					{
						OFFSET -3.249400 8.794197 -1.372250
						CHANNELS 3 Xrotation Yrotation Zrotation
						JOINT RightShoulder_split
						{
							OFFSET -3.249400 8.794197 -1.372250
							CHANNELS 3 Xrotation Yrotation Zrotation
							JOINT RightArm
							{
								OFFSET -11.953299 -2.279007 -0.146200
								CHANNELS 3 Xrotation Yrotation Zrotation
								JOINT RightForeArm
								{
									OFFSET -18.448900 0.000000 0.000000
									CHANNELS 3 Xrotation Yrotation Zrotation
									JOINT RightHand
									{
										OFFSET -29.527802 0.000000 0.000000
										CHANNELS 3 Xrotation Yrotation Zrotation
										JOINT RightHandThumb1
										{
											OFFSET -10.739754 -2.369614 9.225399
											CHANNELS 3 Xrotation Yrotation Zrotation
											JOINT RightHandThumb2
											{
												OFFSET -4.926170 -2.844131 2.844125
												CHANNELS 3 Xrotation Yrotation Zrotation
												JOINT RightHandThumb3
												{
													OFFSET -4.614891 -2.664413 2.664409
													CHANNELS 3 Xrotation Yrotation Zrotation
													JOINT RightHandThumb4
													{
														OFFSET -4.432465 -2.559082 2.559083
														CHANNELS 3 Xrotation Yrotation Zrotation
														End Site
														{
															OFFSET 0.000000 0.000000 0.000000
														}
													}
												}
											}
										}
										JOINT RightHandIndex1
										{
											OFFSET -26.467674 0.187653 6.405298
											CHANNELS 3 Xrotation Yrotation Zrotation
											JOINT RightHandIndex2
											{
												OFFSET -8.792900 0.000000 0.000000
												CHANNELS 3 Xrotation Yrotation Zrotation
												JOINT RightHandIndex3
												{
													OFFSET -10.075203 0.000000 0.000000
													CHANNELS 3 Xrotation Yrotation Zrotation
													End Site
													{
														OFFSET 0.000000 0.000000 0.000000
													}
												}
											}
										}
										JOINT RightHandMiddle1
										{
											OFFSET -25.764404 0.000000 0.000000
											CHANNELS 3 Xrotation Yrotation Zrotation
											JOINT RightHandMiddle2
											{
												OFFSET -9.393974 0.000000 0.000000
												CHANNELS 3 Xrotation Yrotation Zrotation
												JOINT RightHandMiddle3
												{
													OFFSET -10.771950 0.000000 0.000000
													CHANNELS 3 Xrotation Yrotation Zrotation
													End Site
													{
														OFFSET 0.000000 0.000000 0.000000
													}
												}
											}
										}
										JOINT RightHandRing1
										{
											OFFSET -24.660927 0.144547 -6.225808
											CHANNELS 3 Xrotation Yrotation Zrotation
											JOINT RightHandRing2
											{
												OFFSET -9.393799 0.000000 0.000000
												CHANNELS 3 Xrotation Yrotation Zrotation
												JOINT RightHandRing3
												{
													OFFSET -9.928497 0.000000 0.000000
													CHANNELS 3 Xrotation Yrotation Zrotation
													End Site
													{
														OFFSET 0.000000 0.000000 0.000000
													}
												}
											}
										}
										JOINT RightHandPinky1
										{
											OFFSET -23.655350 0.125290 -12.815412
											CHANNELS 3 Xrotation Yrotation Zrotation
											JOINT RightHandPinky2
											{
												OFFSET -8.425102 0.000000 0.000000
												CHANNELS 3 Xrotation Yrotation Zrotation
												JOINT RightHandPinky3
												{
													OFFSET -8.147003 0.000000 0.000000
													CHANNELS 3 Xrotation Yrotation Zrotation
													End Site
													{
														OFFSET 0.000000 0.000000 0.000000
													}
												}
											}
										}
									}
								}
							}
						}
					}
				}
			}
		}
	}
	JOINT LeftUpLeg
	{
		OFFSET 11.394100 -6.187798 -0.413800
		CHANNELS 3 Xrotation Yrotation Zrotation
		JOINT LeftLeg
		{
			OFFSET 0.430247 -32.302673 3.732800
			CHANNELS 3 Xrotation Yrotation Zrotation
			JOINT LeftFoot
			{
				OFFSET -0.430247 -48.264931 -6.423300
				CHANNELS 3 Xrotation Yrotation Zrotation
				JOINT LeftToeBase
				{
					OFFSET 4.230900 -16.068199 23.438400
					CHANNELS 3 Xrotation Yrotation Zrotation
					JOINT LeftToe_End
					{
						OFFSET 4.510700 0.695400 19.974600
						CHANNELS 3 Xrotation Yrotation Zrotation
						End Site
						{
							OFFSET 0.000000 0.000000 0.000000
						}
					}
				}
			}
		}
	}
	JOINT RightUpLeg
	{
		OFFSET -11.333700 -6.187798 -0.413800
		CHANNELS 3 Xrotation Yrotation Zrotation
		JOINT RightLeg
		{
			OFFSET -0.430392 -32.302628 3.733000
			CHANNELS 3 Xrotation Yrotation Zrotation
			JOINT RightFoot
			{
				OFFSET 0.430392 -48.264973 -6.423500
				CHANNELS 3 Xrotation Yrotation Zrotation
				JOINT RightToeBase
				{
					OFFSET -4.230900 -16.068199 23.438400
					CHANNELS 3 Xrotation Yrotation Zrotation
					JOINT RightToe_End
					{
						OFFSET -4.510700 0.695400 19.974600
						CHANNELS 3 Xrotation Yrotation Zrotation
						End Site
						{
							OFFSET 0.000000 0.000000 0.000000
						}
					}
				}
			}
		}
	}
}
MOTION
Frames: 4
Frame Time: 0.016667
14.482296 63.607262 -40.240639 49.328504 -31.694837 16.591247 30.542758 10.559972 3.055051 6.860068 2.066863 1.129969 0.000000 0.000000 0.000000 6.835839 2.135324 1.146299 -7.949792 -4.235515 1.372950 -21.131458 -17.422407 -7.101428 -0.000000 0.000000 -0.000001 5.673086 -23.734084 -9.066817 0.000000 0.000000 0.000000 -27.862333 -10.438790 -41.186464 -0.000029 -38.893457 -0.000006 -42.320282 -3.346973 4.206374 -1.538524 3.693639 6.118921 3.939060 7.948709 0.746800 -0.579472 1.575002 2.538717 -0.000001 -0.000002 -0.000003 0.298630 2.009587 -16.903113 0.539677 2.676804 -22.793531 -0.000004 -0.000001 -0.000000 0.298071 2.007735 -16.887110 0.540427 2.678573 -22.809555 -0.000001 0.000000 -0.000001 0.298630 2.009586 -16.903115 0.539676 2.676804 -22.793530 0.000000 0.000001 0.000001 1.465419 5.893259 -16.473122 0.545006 -1.382176 -23.265264 -0.000000 0.000000 0.000002 -0.454826 29.350989 14.140375 0.000000 0.000000 0.000000 -42.011916 48.862726 12.344895 0.000005 14.620235 0.000001 -4.045419 -7.800922 -22.899259 -1.848195 -3.584406 -6.569215 4.637193 -8.634133 -0.225407 -1.273757 0.137309 -2.094861 -0.000000 0.000000 0.000002 0.480692 -2.544878 21.389424 1.003306 -3.603114 31.111300 -0.000001 -0.000000 0.000001 0.480692 -2.544876 21.389427 1.003308 -3.603113 31.111314 0.000001 -0.000000 -0.000001 0.480690 -2.544876 21.389422 1.003307 -3.603115 31.111307 -0.000001 0.000000 0.000001 0.480691 -2.544879 21.389424 1.003307 -3.603115 31.111300 -0.000001 0.000001 0.000001 -84.390457 -6.541131 -1.404494 112.152983 -13.096688 -0.733827 16.407550 -7.566746 -13.618300 -34.022064 -41.202457 59.461359 -0.000001 0.000000 -0.000000 -119.825834 -2.917672 -23.610745 108.998344 -11.493675 6.119755 -15.891723 -8.083228 3.236853 -10.407088 0.000008 0.000011 0.000000 0.000001 -0.000000 
14.560371 63.879608 -40.096794 48.911073 -32.250948 16.627769 30.589805 10.512085 2.744548 6.860458 2.055450 1.057258 0.000000 0.000000 0.000000 6.836461 2.123751 1.073452 -7.756125 -4.044931 1.169390 -20.994379 -16.671628 -7.271168 -0.000001 -0.000001 -0.000002 5.677196 -23.780716 -9.018291 0.000000 0.000000 0.000000 -27.386367 -9.567770 -41.312358 -0.000010 -39.455182 -0.000004 -42.046952 -3.027423 4.146419 -1.537388 3.696277 6.101090 3.939058 7.948709 0.746808 -0.579469 1.575009 2.538718 -0.000001 -0.000002 -0.000003 0.298626 2.009588 -16.903103 0.539679 2.676799 -22.793547 -0.000002 -0.000003 -0.000000 0.298066 2.007740 -16.887103 0.540427 2.678573 -22.809576 0.000001 0.000003 -0.000000 0.298626 2.009587 -16.903103 0.539679 2.676799 -22.793545 -0.000001 -0.000001 0.000001 1.465423 5.893261 -16.473129 0.545014 -1.382185 -23.265308 -0.000001 0.000001 -0.000000 -0.367077 28.852369 13.849369 0.000000 0.000000 0.000000 -40.871596 48.371509 12.524522 0.000003 16.563844 0.000011 -4.109969 -7.929990 -21.633367 -1.847394 -3.586394 -6.556332 4.637195 -8.634130 -0.225406 -1.273757 0.137311 -2.094855 0.000001 0.000000 0.000001 0.480690 -2.544878 21.389403 1.003311 -3.603116 31.111293 -0.000001 0.000000 0.000001 0.480690 -2.544874 21.389414 1.003312 -3.603118 31.111286 0.000003 -0.000000 0.000000 0.480691 -2.544876 21.389400 1.003312 -3.603116 31.111290 -0.000001 0.000000 0.000001 0.480692 -2.544879 21.389402 1.003311 -3.603113 31.111293 -0.000001 0.000000 -0.000001 -86.529126 -7.147311 -0.958246 113.284862 -12.504431 -1.045049 17.956238 -7.224791 -13.055990 -65.995576 -38.532891 21.474265 0.000000 -0.000001 -0.000000 -118.746022 -3.064825 -23.330313 108.420620 -11.440427 6.105618 -15.885415 -8.038091 3.524233 -10.227524 0.000019 0.000002 0.000000 -0.000000 -0.000000 
14.626019 64.169182 -39.899914 48.443209 -32.806563 16.672044 30.701830 10.483876 2.387614 6.900523 2.048713 0.955039 0.000000 0.000000 0.000000 6.876926 2.117282 0.970889 -7.571698 -3.834394 0.935142 -20.880424 -15.870576 -7.421786 -0.000004 0.000003 0.000000 5.697512 -23.899187 -8.949574 0.000000 0.000000 0.000000 -27.065943 -8.692576 -41.259851 0.000011 -40.071603 -0.000007 -41.576488 -2.697402 3.764257 -1.540044 3.690185 6.142370 3.939058 7.948706 0.746797 -0.579466 1.575009 2.538723 -0.000001 -0.000000 -0.000000 0.298626 2.009582 -16.903096 0.539677 2.676800 -22.793567 -0.000002 -0.000000 -0.000000 0.298070 2.007744 -16.887079 0.540425 2.678584 -22.809574 0.000002 0.000000 -0.000001 0.298626 2.009582 -16.903096 0.539677 2.676800 -22.793566 -0.000000 0.000002 0.000001 1.465417 5.893264 -16.473122 0.545011 -1.382182 -23.265322 -0.000003 0.000000 0.000001 -0.244504 28.311472 13.397254 0.000000 0.000000 0.000000 -39.815901 48.075260 12.700976 -0.000006 18.268886 0.000008 -4.377006 -7.996909 -20.176857 -1.846503 -3.588585 -6.542158 4.637198 -8.634124 -0.225398 -1.273759 0.137311 -2.094871 -0.000001 -0.000000 0.000000 0.480687 -2.544872 21.389415 1.003309 -3.603116 31.111290 -0.000002 0.000000 0.000001 0.480689 -2.544869 21.389419 1.003308 -3.603118 31.111297 0.000002 -0.000000 0.000000 0.480689 -2.544871 21.389414 1.003310 -3.603115 31.111290 -0.000000 0.000000 0.000001 0.480688 -2.544874 21.389412 1.003310 -3.603116 31.111290 -0.000001 0.000000 0.000003 -88.611036 -7.651517 -0.806426 114.350856 -12.170813 -1.081800 19.425200 -6.603681 -13.119764 -75.743431 -36.679759 7.513309 -0.000000 0.000001 -0.000003 -117.545643 -3.154761 -23.065667 107.823436 -11.375864 6.089151 -15.928872 -7.976269 3.862872 -10.060367 0.000006 0.000014 -0.000000 -0.000000 -0.000001 
14.673126 64.499168 -39.652447 47.886876 -33.377328 16.742851 30.912036 10.458346 1.949314 6.923766 2.044798 0.861494 0.000000 0.000000 0.000000 6.900695 2.113030 0.877175 -7.371912 -3.600004 0.660444 -20.823111 -15.011140 -7.545685 -0.000001 -0.000001 0.000001 5.758451 -24.143192 -8.911100 0.000000 0.000000 0.000000 -26.806433 -7.789657 -40.855562 -0.000011 -40.789726 -0.000008 -40.997466 -2.407535 3.305825 -1.540044 3.690191 6.142361 3.939044 7.948708 0.746816 -0.579463 1.575009 2.538718 -0.000001 -0.000001 -0.000002 0.298634 2.009599 -16.903077 0.539664 2.676794 -22.793548 0.000000 0.000002 -0.000000 0.298062 2.007751 -16.887066 0.540420 2.678568 -22.809589 0.000001 -0.000000 0.000001 0.298633 2.009598 -16.903079 0.539666 2.676796 -22.793547 -0.000001 0.000001 -0.000000 1.465414 5.893275 -16.473107 0.545003 -1.382183 -23.265306 -0.000001 0.000002 -0.000001 -0.090558 27.840278 12.771132 0.000000 0.000000 0.000000 -38.951606 47.768755 12.863091 0.000003 19.980752 0.000003 -4.789543 -8.173850 -18.486383 -1.849253 -3.581790 -6.586123 4.637195 -8.634123 -0.225387 -1.273755 0.137313 -2.094880 -0.000001 0.000001 0.000004 0.480688 -2.544866 21.389412 1.003309 -3.603114 31.111310 -0.000002 -0.000000 -0.000002 0.480690 -2.544863 21.389412 1.003309 -3.603117 31.111310 -0.000001 -0.000000 0.000000 0.480688 -2.544864 21.389412 1.003311 -3.603114 31.111314 -0.000002 -0.000000 -0.000001 0.480689 -2.544867 21.389410 1.003309 -3.603115 31.111314 -0.000000 0.000000 0.000003 -90.488368 -8.086017 -0.871651 115.338235 -12.005827 -0.974553 20.450017 -6.249604 -13.453590 -76.088929 -39.142079 7.723385 -0.000001 -0.000000 0.000000 -116.190643 -3.204617 -22.743912 107.174663 -11.310066 6.039183 -16.041959 -7.959944 4.194576 -9.820710 -0.000020 -0.000005 0.000000 0.000000 -0.000000 
